<svg width="100" height="100" viewBox="0 0 100 100" fill="none" xmlns="http://www.w3.org/2000/svg">
<g clip-path="url(#clip0_2_3)">
<path d="M98.8688 0.133597C99.8207 0.133597 99.1811 0.742309 98.2297 0.775953C98.0701 0.781598 97.9106 0.785941 97.7516 0.785941C66.0876 0.782035 34.4196 0.778128 2.75554 0.778128C0.661787 0.778128 0.665693 0.774222 0.665693 2.86016C0.665693 34.7156 0.669599 66.5711 0.669599 98.4266C0.669599 98.6519 0.665161 98.8772 0.65586 99.1169C0.636762 99.6091 -0.0258831 100.313 0.00163048 99.8211V99.8211C0.0172555 99.493 0.00553649 99.1609 0.00553649 98.8289C0.00553649 66.6738 0.00553649 34.5225 0.00553649 2.30552C0.00553649 1.09092 0.99016 0.106253 2.20476 0.106253V0.106253C34.4274 0.106253 66.6462 0.102347 98.8688 0.133597V0.133597Z" fill="#113CE8"/>
<path d="M44.4672 62.8187C44.681 62.9397 44.9073 63.0376 45.1398 63.1171C45.5784 63.2671 45.9704 63.3969 46.3649 63.5242V63.5242C46.4912 63.5716 46.492 63.2976 46.3693 63.2418C45.4913 62.8425 44.7865 62.3584 44.1462 61.7977C43.7243 61.4266 43.3258 61.0008 43.0212 60.532C42.7048 60.0399 42.6071 59.4031 43.0016 58.9344C43.4196 58.4383 43.9743 58.7391 44.4235 59.0047C45.7048 59.7703 47.1579 60.0438 48.5563 60.4695V60.4695C49.3072 60.7085 49.8366 59.9955 49.9136 59.2112C50.1898 56.3968 50.4447 53.5534 51.051 50.7703C51.3363 49.4607 52.2907 49.6071 52.1785 50.9426V50.9426C52.1002 51.8743 53.003 52.2963 53.7267 51.7043V51.7043C54.2953 51.2392 54.8579 51.7491 54.2663 52.1847C54.2384 52.2052 54.2112 52.2259 54.1852 52.2469C52.5837 53.5164 51.7907 55.1297 51.9665 57.1961C52.0094 57.7156 52.0329 58.2391 51.9899 58.7586C51.861 60.368 52.2243 61.575 54.0485 62.0125C54.9704 62.2352 55.693 62.95 56.2673 63.7156V63.7156C57.2768 65.0524 59.0887 65.587 60.3442 64.478C62.4149 62.649 63.7145 60.2817 64.2399 57.4227C64.5768 55.597 64.5492 53.833 64.1482 52.1565C63.4725 49.331 64.9226 45.889 66.0758 48.5555V48.5555C70.8102 59.4852 62.9821 71.1727 51.0915 70.9305C42.6188 70.7547 35.5954 63.2547 35.9899 54.7899V54.7899C36.0087 54.4394 36.498 54.3505 36.6873 54.6459C38.8152 57.9669 41.0726 60.897 44.4672 62.8187Z" fill="#113CE8"/>
<path d="M61.8141 33.118C66.7692 32.2637 71.3134 32.8412 75.4079 35.3009C76.3404 35.8611 76.7032 36.9215 75.8454 37.5907V37.5907C73.2673 39.5946 70.6618 41.5594 68.0993 43.5789C64.6302 46.3179 59.4227 46.394 54.8233 43.6031C54.7241 43.5429 54.6347 43.4323 54.6447 43.3167V43.3167C54.6775 42.9374 54.5091 42.6695 54.378 42.312C54.2776 42.0382 54.4412 41.6437 54.4938 41.3602C55.2595 37.2 57.4196 34.2352 61.8141 33.118ZM64.6071 37.536V37.536C64.0452 37.6468 64.1305 37.8997 64.6878 37.7676C64.886 37.7207 65.0828 37.6741 65.2795 37.6276C65.3211 37.6178 65.3479 37.5776 65.3395 37.5357V37.5357C65.3311 37.494 65.2933 37.4638 65.2509 37.4665C65.0931 37.4765 64.9168 37.4888 64.6071 37.536Z" fill="#113CE8"/>
<path d="M49.971 36.7998C50.6741 37.2063 51.2777 37.7711 51.724 38.4496C52.6364 39.8366 52.9986 41.3655 52.986 43.032C52.9782 43.8367 52.6657 44.3055 51.8649 44.6023C48.2204 45.9656 44.736 45.1961 42.0368 42.3484V42.3484C39.2264 39.3781 39.746 35.003 43.8317 35.173C46.0006 35.2632 48.2484 35.8038 49.971 36.7998Z" fill="#113CE8"/>
<path d="M36.779 50.0125C37.4821 47.8523 38.6383 46.0984 40.0212 44.4539C40.8883 43.4266 41.654 43.1609 42.6188 44.2742V44.2742C43.1763 44.9205 43.0717 45.6732 42.495 46.3025C41.6207 47.2565 40.8958 48.2851 40.3346 49.3927C39.0531 51.9221 35.9396 52.7209 36.779 50.0125V50.0125Z" fill="#113CE8"/>
<path d="M60.4157 51.2078C59.1462 51.8992 57.9821 52.5047 56.5759 51.8562C55.3844 51.3054 55.1774 50.5633 56.0407 49.5437C56.9196 48.5047 58.0759 48.407 59.279 48.739C59.676 48.8478 60.0779 48.9614 60.451 49.1255C61.4393 49.5605 61.3278 50.6299 60.4157 51.2078V51.2078Z" fill="#113CE8"/>
</g>
<defs>
<clipPath id="clip0_2_3">
<rect width="100" height="100" fill="white"/>
</clipPath>
</defs>
</svg>
