<svg width="208" height="17" viewBox="0 0 208 17" fill="none" xmlns="http://www.w3.org/2000/svg">
<path d="M0.153409 13L2.08523 1.36364H4.89773L4.125 6.03409H8.71023L9.48295 1.36364H12.2898L10.358 13H7.55114L8.32386 8.32386H3.73864L2.96591 13H0.153409ZM14.5597 13.1477C14.0066 13.1477 13.5294 13.0549 13.1278 12.8693C12.7301 12.6799 12.4384 12.3939 12.2528 12.0114C12.071 11.6288 12.0275 11.1515 12.1222 10.5795C12.2055 10.0947 12.3589 9.6875 12.5824 9.35795C12.8097 9.02462 13.0881 8.75379 13.4176 8.54545C13.7509 8.33712 14.1222 8.17803 14.5312 8.06818C14.9403 7.95833 15.3684 7.88447 15.8153 7.84659C16.3153 7.80114 16.7206 7.75189 17.0312 7.69886C17.3456 7.64583 17.5805 7.57197 17.7358 7.47727C17.8911 7.37879 17.9858 7.24242 18.0199 7.06818V7.03977C18.0653 6.74811 18.0028 6.52273 17.8324 6.36364C17.6619 6.20455 17.4062 6.125 17.0653 6.125C16.7017 6.125 16.3911 6.20455 16.1335 6.36364C15.8759 6.52273 15.696 6.74242 15.5938 7.02273L13.0483 6.93182C13.2074 6.40152 13.4801 5.92803 13.8665 5.51136C14.2528 5.09091 14.7434 4.76136 15.3381 4.52273C15.9366 4.2803 16.6278 4.15909 17.4119 4.15909C17.965 4.15909 18.465 4.22538 18.9119 4.35795C19.3589 4.48674 19.7358 4.67614 20.0426 4.92614C20.3532 5.17235 20.5748 5.47538 20.7074 5.83523C20.84 6.19508 20.8684 6.60606 20.7926 7.06818L19.7983 13H17.1847L17.3892 11.7841H17.321C17.1165 12.0795 16.8759 12.3295 16.5994 12.5341C16.3267 12.7386 16.0199 12.892 15.679 12.9943C15.3381 13.0966 14.965 13.1477 14.5597 13.1477ZM15.7301 11.3295C16.0218 11.3295 16.2983 11.2689 16.5597 11.1477C16.821 11.0265 17.0407 10.8598 17.2188 10.6477C17.4006 10.4318 17.5161 10.1818 17.5653 9.89773L17.696 9.06818C17.6165 9.10985 17.5161 9.14773 17.3949 9.18182C17.2737 9.21591 17.1449 9.24811 17.0085 9.27841C16.8722 9.30492 16.732 9.33144 16.5881 9.35795C16.4479 9.38068 16.3134 9.40152 16.1847 9.42045C15.9119 9.46212 15.6752 9.52652 15.4744 9.61364C15.2737 9.70076 15.1127 9.81439 14.9915 9.95455C14.8741 10.0909 14.8021 10.2538 14.7756 10.4432C14.7301 10.7273 14.7964 10.947 14.9744 11.1023C15.1525 11.2538 15.4044 11.3295 15.7301 11.3295ZM21.4972 13L22.9517 4.27273H25.6506L25.3835 5.86364H25.4744C25.7282 5.28788 26.0597 4.85985 26.4688 4.57955C26.8778 4.29545 27.321 4.15341 27.7983 4.15341C27.9271 4.15341 28.0559 4.16288 28.1847 4.18182C28.3172 4.19697 28.4422 4.2197 28.5597 4.25L28.1506 6.67045C28.0218 6.62121 27.8532 6.58523 27.6449 6.5625C27.4366 6.53598 27.2472 6.52273 27.0767 6.52273C26.7472 6.52273 26.4403 6.59659 26.1562 6.74432C25.8759 6.88826 25.6373 7.09091 25.4403 7.35227C25.2472 7.60985 25.1203 7.91288 25.0597 8.26136L24.2756 13H21.4972ZM38.4176 4.27273L33.9688 13H30.7869L29.2528 4.27273H32.0767L32.6903 10.2841H32.7812L35.3892 4.27273H38.4176ZM41.804 13.1648C40.8911 13.1648 40.1335 12.9848 39.5312 12.625C38.9328 12.2614 38.5123 11.7443 38.2699 11.0739C38.0275 10.3996 37.9839 9.59848 38.1392 8.67045C38.2907 7.76894 38.5994 6.98106 39.0653 6.30682C39.535 5.62879 40.1259 5.10227 40.8381 4.72727C41.5502 4.34848 42.3438 4.15909 43.2188 4.15909C43.84 4.15909 44.3911 4.25568 44.8722 4.44886C45.3532 4.64205 45.7509 4.92992 46.0653 5.3125C46.3797 5.69129 46.5938 6.1572 46.7074 6.71023C46.821 7.26326 46.8172 7.89773 46.696 8.61364L46.5881 9.30682H39.0085L39.2642 7.69318H44.2642C44.3097 7.39773 44.285 7.13447 44.1903 6.90341C44.0956 6.67235 43.9422 6.49242 43.7301 6.36364C43.5218 6.23106 43.2661 6.16477 42.9631 6.16477C42.6563 6.16477 42.3684 6.23674 42.0994 6.38068C41.8343 6.52083 41.6089 6.71023 41.4233 6.94886C41.2377 7.1875 41.1165 7.45644 41.0597 7.75568L40.7585 9.40909C40.6979 9.77652 40.715 10.0909 40.8097 10.3523C40.9044 10.6136 41.0672 10.8144 41.2983 10.9545C41.5294 11.0909 41.8267 11.1591 42.1903 11.1591C42.4328 11.1591 42.66 11.1269 42.8722 11.0625C43.0843 10.9943 43.2737 10.8939 43.4403 10.7614C43.6108 10.625 43.7491 10.4602 43.8551 10.267L46.3892 10.3409C46.1847 10.9129 45.8684 11.411 45.4403 11.8352C45.0123 12.2557 44.4896 12.5833 43.8722 12.8182C43.2585 13.0492 42.5691 13.1648 41.804 13.1648ZM55.9957 6.9375L53.4901 7.00568C53.4938 6.82008 53.4522 6.6572 53.3651 6.51705C53.2779 6.37311 53.1548 6.26136 52.9957 6.18182C52.8366 6.10227 52.6473 6.0625 52.4276 6.0625C52.0715 6.0625 51.7514 6.14205 51.4673 6.30114C51.187 6.46023 51.0298 6.66667 50.9957 6.92045C50.9692 7.05682 51.0071 7.17614 51.1094 7.27841C51.2116 7.37689 51.4389 7.46401 51.7912 7.53977L53.4276 7.85795C54.2685 8.02462 54.8783 8.31439 55.2571 8.72727C55.6397 9.13636 55.776 9.67803 55.6662 10.3523C55.5677 10.928 55.3139 11.4261 54.9048 11.8466C54.4995 12.267 53.9825 12.5928 53.3537 12.8239C52.7287 13.0511 52.0374 13.1648 51.2798 13.1648C49.9995 13.1648 49.0336 12.9072 48.3821 12.392C47.7344 11.8731 47.4313 11.1856 47.473 10.3295L50.1776 10.2614C50.1889 10.5833 50.2969 10.8258 50.5014 10.9886C50.7098 11.1477 50.992 11.2311 51.348 11.2386C51.7382 11.2462 52.0753 11.1648 52.3594 10.9943C52.6435 10.8239 52.8026 10.6136 52.8366 10.3636C52.8594 10.2008 52.8045 10.0739 52.6719 9.98295C52.5431 9.89205 52.3026 9.81061 51.9503 9.73864L50.473 9.44886C49.6245 9.28598 49.0109 8.97917 48.6321 8.52841C48.2571 8.07386 48.1283 7.49432 48.2457 6.78977C48.3442 6.22917 48.5753 5.75379 48.9389 5.36364C49.3063 4.9697 49.7855 4.67045 50.3764 4.46591C50.9711 4.26136 51.6491 4.15909 52.4105 4.15909C53.6302 4.15909 54.5507 4.4072 55.1719 4.90341C55.7969 5.39583 56.0715 6.07386 55.9957 6.9375ZM62.9716 4.27273L62.625 6.31818H57.1193L57.4659 4.27273H62.9716ZM58.9602 2.18182H61.7386L60.3977 10.2557C60.3712 10.4261 60.375 10.5644 60.4091 10.6705C60.447 10.7727 60.5152 10.8466 60.6136 10.892C60.7159 10.9337 60.8409 10.9545 60.9886 10.9545C61.0909 10.9545 61.2045 10.9432 61.3295 10.9205C61.4545 10.8977 61.5492 10.8807 61.6136 10.8693L61.7045 12.875C61.5568 12.9167 61.358 12.964 61.108 13.017C60.8617 13.0739 60.5739 13.1098 60.2443 13.125C59.5777 13.1515 59.0265 13.0739 58.5909 12.892C58.1591 12.7064 57.8542 12.4186 57.6761 12.0284C57.5019 11.6383 57.4678 11.1496 57.5739 10.5625L58.9602 2.18182ZM62.9347 13L64.3892 4.27273H67.1676L65.7131 13H62.9347ZM65.9744 3.25C65.5805 3.25 65.2604 3.11932 65.0142 2.85795C64.768 2.59659 64.6714 2.28409 64.7244 1.92045C64.7775 1.55303 64.9631 1.24053 65.2812 0.982954C65.5994 0.725379 65.9536 0.596591 66.3438 0.596591C66.7377 0.596591 67.054 0.725379 67.2926 0.982954C67.535 1.24053 67.6297 1.55303 67.5767 1.92045C67.5313 2.28409 67.3494 2.59659 67.0312 2.85795C66.7169 3.11932 66.3646 3.25 65.9744 3.25ZM71.1065 8.02273L70.277 13H67.4986L68.9531 4.27273H71.5952L71.3338 5.875H71.4304C71.7031 5.34091 72.099 4.92235 72.6179 4.61932C73.1368 4.3125 73.7202 4.15909 74.3679 4.15909C74.9777 4.15909 75.4872 4.29545 75.8963 4.56818C76.3054 4.84091 76.5952 5.22348 76.7656 5.71591C76.9361 6.20455 76.9645 6.77841 76.8509 7.4375L75.919 13H73.1406L73.9759 7.98295C74.0592 7.50189 74.0005 7.125 73.7997 6.85227C73.6027 6.57576 73.2808 6.4375 72.8338 6.4375C72.5421 6.4375 72.2751 6.50189 72.0327 6.63068C71.794 6.75568 71.5933 6.93561 71.4304 7.17045C71.2713 7.4053 71.1634 7.68939 71.1065 8.02273ZM81.1449 16.4545C80.3116 16.4545 79.6184 16.339 79.0653 16.108C78.5123 15.8769 78.0994 15.5606 77.8267 15.1591C77.554 14.7576 77.4233 14.303 77.4347 13.7955L80.0938 13.6477C80.1165 13.8295 80.1828 13.9867 80.2926 14.1193C80.4025 14.2519 80.5597 14.3523 80.7642 14.4205C80.9688 14.4924 81.2225 14.5284 81.5256 14.5284C81.9915 14.5284 82.3968 14.4148 82.7415 14.1875C83.0862 13.9602 83.2983 13.5682 83.3778 13.0114L83.6335 11.4773H83.5369C83.3854 11.7462 83.1809 11.9867 82.9233 12.1989C82.6657 12.411 82.3608 12.5777 82.0085 12.6989C81.6563 12.8201 81.2661 12.8807 80.8381 12.8807C80.1979 12.8807 79.6392 12.733 79.1619 12.4375C78.6847 12.1383 78.34 11.6761 78.1278 11.0511C77.9157 10.4223 77.8911 9.61364 78.054 8.625C78.2244 7.60606 78.5275 6.76705 78.9631 6.10795C79.3987 5.44508 79.9062 4.95455 80.4858 4.63636C81.0691 4.31818 81.6657 4.15909 82.2756 4.15909C82.7339 4.15909 83.1127 4.23864 83.4119 4.39773C83.7112 4.55303 83.946 4.75379 84.1165 5C84.2869 5.24621 84.4081 5.50189 84.4801 5.76705H84.5597L84.804 4.27273H87.571L86.1165 13.0341C85.9991 13.7765 85.7131 14.4015 85.2585 14.9091C84.804 15.4167 84.2225 15.8011 83.5142 16.0625C82.8059 16.3239 82.0161 16.4545 81.1449 16.4545ZM82.1222 10.858C82.4593 10.858 82.7642 10.7689 83.0369 10.5909C83.3097 10.4129 83.5388 10.1572 83.7244 9.82386C83.91 9.49053 84.0407 9.09091 84.1165 8.625C84.1922 8.15152 84.1922 7.74432 84.1165 7.40341C84.0445 7.05871 83.9044 6.79356 83.696 6.60795C83.4877 6.42235 83.2131 6.32955 82.8722 6.32955C82.5275 6.32955 82.2206 6.42424 81.9517 6.61364C81.6866 6.80303 81.4631 7.07008 81.2812 7.41477C81.1032 7.75568 80.9782 8.15909 80.9062 8.625C80.8305 9.09091 80.8248 9.49053 80.8892 9.82386C80.9574 10.1572 81.0938 10.4129 81.2983 10.5909C81.5066 10.7689 81.7812 10.858 82.1222 10.858ZM93.7628 13.1477C93.2098 13.1477 92.7325 13.0549 92.331 12.8693C91.9332 12.6799 91.6416 12.3939 91.456 12.0114C91.2741 11.6288 91.2306 11.1515 91.3253 10.5795C91.4086 10.0947 91.562 9.6875 91.7855 9.35795C92.0128 9.02462 92.2912 8.75379 92.6207 8.54545C92.9541 8.33712 93.3253 8.17803 93.7344 8.06818C94.1435 7.95833 94.5715 7.88447 95.0185 7.84659C95.5185 7.80114 95.9238 7.75189 96.2344 7.69886C96.5488 7.64583 96.7836 7.57197 96.9389 7.47727C97.0942 7.37879 97.1889 7.24242 97.223 7.06818V7.03977C97.2685 6.74811 97.206 6.52273 97.0355 6.36364C96.8651 6.20455 96.6094 6.125 96.2685 6.125C95.9048 6.125 95.5942 6.20455 95.3366 6.36364C95.0791 6.52273 94.8991 6.74242 94.7969 7.02273L92.2514 6.93182C92.4105 6.40152 92.6832 5.92803 93.0696 5.51136C93.456 5.09091 93.9465 4.76136 94.5412 4.52273C95.1397 4.2803 95.831 4.15909 96.6151 4.15909C97.1681 4.15909 97.6681 4.22538 98.1151 4.35795C98.562 4.48674 98.9389 4.67614 99.2457 4.92614C99.5563 5.17235 99.7779 5.47538 99.9105 5.83523C100.043 6.19508 100.071 6.60606 99.9957 7.06818L99.0014 13H96.3878L96.5923 11.7841H96.5241C96.3196 12.0795 96.0791 12.3295 95.8026 12.5341C95.5298 12.7386 95.223 12.892 94.8821 12.9943C94.5412 13.0966 94.1681 13.1477 93.7628 13.1477ZM94.9332 11.3295C95.2249 11.3295 95.5014 11.2689 95.7628 11.1477C96.0241 11.0265 96.2438 10.8598 96.4219 10.6477C96.6037 10.4318 96.7192 10.1818 96.7685 9.89773L96.8991 9.06818C96.8196 9.10985 96.7192 9.14773 96.598 9.18182C96.4768 9.21591 96.348 9.24811 96.2116 9.27841C96.0753 9.30492 95.9351 9.33144 95.7912 9.35795C95.651 9.38068 95.5166 9.40152 95.3878 9.42045C95.1151 9.46212 94.8783 9.52652 94.6776 9.61364C94.4768 9.70076 94.3158 9.81439 94.1946 9.95455C94.0772 10.0909 94.0052 10.2538 93.9787 10.4432C93.9332 10.7273 93.9995 10.947 94.1776 11.1023C94.3556 11.2538 94.6075 11.3295 94.9332 11.3295ZM104.138 13L106.07 1.36364H110.922C111.793 1.36364 112.503 1.48674 113.053 1.73295C113.602 1.97917 113.988 2.32386 114.212 2.76705C114.439 3.21023 114.503 3.72348 114.405 4.30682C114.325 4.74621 114.162 5.14015 113.916 5.48864C113.674 5.83333 113.371 6.12121 113.007 6.35227C112.643 6.57955 112.242 6.73864 111.803 6.82955L111.78 6.94318C112.25 6.96212 112.664 7.08712 113.024 7.31818C113.388 7.54924 113.657 7.87311 113.831 8.28977C114.005 8.70265 114.045 9.1875 113.95 9.74432C113.848 10.3693 113.596 10.928 113.195 11.4205C112.797 11.9091 112.272 12.2955 111.621 12.5795C110.969 12.8598 110.215 13 109.359 13H104.138ZM107.337 10.733H109.075C109.678 10.733 110.143 10.6174 110.473 10.3864C110.806 10.1515 111.003 9.82955 111.064 9.42045C111.113 9.12121 111.087 8.86364 110.984 8.64773C110.882 8.42803 110.712 8.25947 110.473 8.14205C110.234 8.02083 109.933 7.96023 109.57 7.96023H107.78L107.337 10.733ZM108.092 6.14773H109.655C109.958 6.14773 110.236 6.09659 110.49 5.99432C110.748 5.89205 110.96 5.74432 111.126 5.55114C111.297 5.35795 111.403 5.125 111.445 4.85227C111.509 4.46212 111.42 4.1553 111.178 3.93182C110.935 3.70833 110.581 3.59659 110.115 3.59659H108.513L108.092 6.14773ZM118.82 13.1648C117.907 13.1648 117.149 12.9848 116.547 12.625C115.948 12.2614 115.528 11.7443 115.286 11.0739C115.043 10.3996 115 9.59848 115.155 8.67045C115.306 7.76894 115.615 6.98106 116.081 6.30682C116.551 5.62879 117.142 5.10227 117.854 4.72727C118.566 4.34848 119.359 4.15909 120.234 4.15909C120.856 4.15909 121.407 4.25568 121.888 4.44886C122.369 4.64205 122.767 4.92992 123.081 5.3125C123.395 5.69129 123.609 6.1572 123.723 6.71023C123.837 7.26326 123.833 7.89773 123.712 8.61364L123.604 9.30682H116.024L116.28 7.69318H121.28C121.325 7.39773 121.301 7.13447 121.206 6.90341C121.111 6.67235 120.958 6.49242 120.746 6.36364C120.537 6.23106 120.282 6.16477 119.979 6.16477C119.672 6.16477 119.384 6.23674 119.115 6.38068C118.85 6.52083 118.625 6.71023 118.439 6.94886C118.253 7.1875 118.132 7.45644 118.075 7.75568L117.774 9.40909C117.714 9.77652 117.731 10.0909 117.825 10.3523C117.92 10.6136 118.083 10.8144 118.314 10.9545C118.545 11.0909 118.842 11.1591 119.206 11.1591C119.448 11.1591 119.676 11.1269 119.888 11.0625C120.1 10.9943 120.289 10.8939 120.456 10.7614C120.626 10.625 120.765 10.4602 120.871 10.267L123.405 10.3409C123.2 10.9129 122.884 11.411 122.456 11.8352C122.028 12.2557 121.505 12.5833 120.888 12.8182C120.274 13.0492 119.585 13.1648 118.82 13.1648ZM130.784 4.27273L130.438 6.31818H124.932L125.278 4.27273H130.784ZM126.773 2.18182H129.551L128.21 10.2557C128.184 10.4261 128.188 10.5644 128.222 10.6705C128.259 10.7727 128.328 10.8466 128.426 10.892C128.528 10.9337 128.653 10.9545 128.801 10.9545C128.903 10.9545 129.017 10.9432 129.142 10.9205C129.267 10.8977 129.362 10.8807 129.426 10.8693L129.517 12.875C129.369 12.9167 129.17 12.964 128.92 13.017C128.674 13.0739 128.386 13.1098 128.057 13.125C127.39 13.1515 126.839 13.0739 126.403 12.892C125.972 12.7064 125.667 12.4186 125.489 12.0284C125.314 11.6383 125.28 11.1496 125.386 10.5625L126.773 2.18182ZM137.128 4.27273L136.781 6.31818H131.276L131.622 4.27273H137.128ZM133.116 2.18182H135.895L134.554 10.2557C134.527 10.4261 134.531 10.5644 134.565 10.6705C134.603 10.7727 134.671 10.8466 134.77 10.892C134.872 10.9337 134.997 10.9545 135.145 10.9545C135.247 10.9545 135.361 10.9432 135.486 10.9205C135.611 10.8977 135.705 10.8807 135.77 10.8693L135.861 12.875C135.713 12.9167 135.514 12.964 135.264 13.017C135.018 13.0739 134.73 13.1098 134.401 13.125C133.734 13.1515 133.183 13.0739 132.747 12.892C132.315 12.7064 132.01 12.4186 131.832 12.0284C131.658 11.6383 131.624 11.1496 131.73 10.5625L133.116 2.18182ZM141.054 13.1648C140.141 13.1648 139.384 12.9848 138.781 12.625C138.183 12.2614 137.762 11.7443 137.52 11.0739C137.277 10.3996 137.234 9.59848 137.389 8.67045C137.541 7.76894 137.849 6.98106 138.315 6.30682C138.785 5.62879 139.376 5.10227 140.088 4.72727C140.8 4.34848 141.594 4.15909 142.469 4.15909C143.09 4.15909 143.641 4.25568 144.122 4.44886C144.603 4.64205 145.001 4.92992 145.315 5.3125C145.63 5.69129 145.844 6.1572 145.957 6.71023C146.071 7.26326 146.067 7.89773 145.946 8.61364L145.838 9.30682H138.259L138.514 7.69318H143.514C143.56 7.39773 143.535 7.13447 143.44 6.90341C143.346 6.67235 143.192 6.49242 142.98 6.36364C142.772 6.23106 142.516 6.16477 142.213 6.16477C141.906 6.16477 141.618 6.23674 141.349 6.38068C141.084 6.52083 140.859 6.71023 140.673 6.94886C140.488 7.1875 140.366 7.45644 140.31 7.75568L140.009 9.40909C139.948 9.77652 139.965 10.0909 140.06 10.3523C140.154 10.6136 140.317 10.8144 140.548 10.9545C140.779 11.0909 141.077 11.1591 141.44 11.1591C141.683 11.1591 141.91 11.1269 142.122 11.0625C142.334 10.9943 142.524 10.8939 142.69 10.7614C142.861 10.625 142.999 10.4602 143.105 10.267L145.639 10.3409C145.435 10.9129 145.118 11.411 144.69 11.8352C144.262 12.2557 143.74 12.5833 143.122 12.8182C142.509 13.0492 141.819 13.1648 141.054 13.1648ZM146.638 13L148.092 4.27273H150.791L150.524 5.86364H150.615C150.869 5.28788 151.2 4.85985 151.609 4.57955C152.018 4.29545 152.462 4.15341 152.939 4.15341C153.068 4.15341 153.196 4.16288 153.325 4.18182C153.458 4.19697 153.583 4.2197 153.7 4.25L153.291 6.67045C153.162 6.62121 152.994 6.58523 152.786 6.5625C152.577 6.53598 152.388 6.52273 152.217 6.52273C151.888 6.52273 151.581 6.59659 151.297 6.74432C151.017 6.88826 150.778 7.09091 150.581 7.35227C150.388 7.60985 150.261 7.91288 150.2 8.26136L149.416 13H146.638ZM156.81 13L158.741 1.36364H166.685L166.298 3.64773H161.168L160.781 6.03409H165.406L165.02 8.32386H160.395L159.622 13H156.81ZM171.878 9.23295L172.707 4.27273H175.48L174.026 13H171.378L171.645 11.375H171.554C171.285 11.9091 170.889 12.3333 170.366 12.6477C169.844 12.9583 169.255 13.1136 168.599 13.1136C168.005 13.1136 167.505 12.9773 167.099 12.7045C166.694 12.4318 166.406 12.0511 166.236 11.5625C166.069 11.0701 166.039 10.4943 166.145 9.83523L167.077 4.27273H169.855L169.02 9.28977C168.948 9.76326 169.01 10.1364 169.207 10.4091C169.408 10.6818 169.723 10.8182 170.151 10.8182C170.427 10.8182 170.687 10.7576 170.929 10.6364C171.171 10.5114 171.376 10.3314 171.543 10.0966C171.713 9.85795 171.825 9.57008 171.878 9.23295ZM182.175 4.27273L181.828 6.31818H176.322L176.669 4.27273H182.175ZM178.163 2.18182H180.942L179.601 10.2557C179.574 10.4261 179.578 10.5644 179.612 10.6705C179.65 10.7727 179.718 10.8466 179.817 10.892C179.919 10.9337 180.044 10.9545 180.192 10.9545C180.294 10.9545 180.408 10.9432 180.533 10.9205C180.658 10.8977 180.752 10.8807 180.817 10.8693L180.908 12.875C180.76 12.9167 180.561 12.964 180.311 13.017C180.065 13.0739 179.777 13.1098 179.447 13.125C178.781 13.1515 178.23 13.0739 177.794 12.892C177.362 12.7064 177.057 12.4186 176.879 12.0284C176.705 11.6383 176.671 11.1496 176.777 10.5625L178.163 2.18182ZM188.393 9.23295L189.223 4.27273H191.996L190.541 13H187.893L188.161 11.375H188.07C187.801 11.9091 187.405 12.3333 186.882 12.6477C186.359 12.9583 185.77 13.1136 185.115 13.1136C184.52 13.1136 184.02 12.9773 183.615 12.7045C183.21 12.4318 182.922 12.0511 182.751 11.5625C182.585 11.0701 182.554 10.4943 182.661 9.83523L183.592 4.27273H186.371L185.536 9.28977C185.464 9.76326 185.526 10.1364 185.723 10.4091C185.924 10.6818 186.238 10.8182 186.666 10.8182C186.943 10.8182 187.202 10.7576 187.445 10.6364C187.687 10.5114 187.892 10.3314 188.058 10.0966C188.229 9.85795 188.34 9.57008 188.393 9.23295ZM192.31 13L193.764 4.27273H196.463L196.196 5.86364H196.287C196.541 5.28788 196.872 4.85985 197.281 4.57955C197.69 4.29545 198.134 4.15341 198.611 4.15341C198.74 4.15341 198.868 4.16288 198.997 4.18182C199.13 4.19697 199.255 4.2197 199.372 4.25L198.963 6.67045C198.834 6.62121 198.666 6.58523 198.457 6.5625C198.249 6.53598 198.06 6.52273 197.889 6.52273C197.56 6.52273 197.253 6.59659 196.969 6.74432C196.688 6.88826 196.45 7.09091 196.253 7.35227C196.06 7.60985 195.933 7.91288 195.872 8.26136L195.088 13H192.31ZM202.648 13.1648C201.735 13.1648 200.977 12.9848 200.375 12.625C199.777 12.2614 199.356 11.7443 199.114 11.0739C198.871 10.3996 198.828 9.59848 198.983 8.67045C199.134 7.76894 199.443 6.98106 199.909 6.30682C200.379 5.62879 200.97 5.10227 201.682 4.72727C202.394 4.34848 203.188 4.15909 204.062 4.15909C204.684 4.15909 205.235 4.25568 205.716 4.44886C206.197 4.64205 206.595 4.92992 206.909 5.3125C207.223 5.69129 207.438 6.1572 207.551 6.71023C207.665 7.26326 207.661 7.89773 207.54 8.61364L207.432 9.30682H199.852L200.108 7.69318H205.108C205.153 7.39773 205.129 7.13447 205.034 6.90341C204.939 6.67235 204.786 6.49242 204.574 6.36364C204.366 6.23106 204.11 6.16477 203.807 6.16477C203.5 6.16477 203.212 6.23674 202.943 6.38068C202.678 6.52083 202.453 6.71023 202.267 6.94886C202.081 7.1875 201.96 7.45644 201.903 7.75568L201.602 9.40909C201.542 9.77652 201.559 10.0909 201.653 10.3523C201.748 10.6136 201.911 10.8144 202.142 10.9545C202.373 11.0909 202.67 11.1591 203.034 11.1591C203.277 11.1591 203.504 11.1269 203.716 11.0625C203.928 10.9943 204.117 10.8939 204.284 10.7614C204.455 10.625 204.593 10.4602 204.699 10.267L207.233 10.3409C207.028 10.9129 206.712 11.411 206.284 11.8352C205.856 12.2557 205.333 12.5833 204.716 12.8182C204.102 13.0492 203.413 13.1648 202.648 13.1648Z" fill="#2D24B5"/>
</svg>
